<svg width="139" height="123" viewBox="0 0 139 123" fill="none" xmlns="http://www.w3.org/2000/svg">
<path d="M67.1566 79.6456C66.6991 79.9075 66.1812 80.0658 65.6455 80.0914L48.3841 80.9177C43.4849 81.1501 39.2705 80.6762 35.4954 79.4746C27.2353 76.849 20.3037 71.3772 15.9821 64.0591L1.74923 39.9778C0.106 37.1989 0.474373 33.6495 2.65578 31.1437L22.1991 8.76137C23.3525 7.42019 24.9666 6.48682 26.7306 6.13443L55.9816 0.207936C59.2533 -0.459772 62.5575 0.963732 64.1949 3.74126L78.4382 27.8404C82.7572 35.1457 84.1849 43.8059 82.4619 52.2262C81.6709 56.0889 80.0225 59.9613 77.4278 64.0657L68.2838 78.5575C68.0015 79.0096 67.6121 79.3801 67.1566 79.6456Z" fill="url(#paint0_linear_30_237)"/>
<g filter="url(#filter0_b_30_237)">
<mask id="path-2-outside-1_30_237" maskUnits="userSpaceOnUse" x="27.2178" y="2.13752" width="115.617" height="128.458" fill="black">
<rect fill="white" x="27.2178" y="2.13752" width="115.617" height="128.458"/>
<path d="M76.5073 121.859C75.8137 121.754 75.1449 121.49 74.5693 121.074L56.0192 107.644C50.756 103.83 46.7951 99.8446 43.9005 95.4623C37.564 85.8775 34.9949 74.4171 36.6783 63.1878L42.2048 26.226C42.8417 21.96 46.2073 18.5544 50.5708 17.741L89.6071 10.5244C91.9279 10.0773 94.3824 10.4381 96.5034 11.5304L131.744 29.5563C135.69 31.5675 137.911 35.7918 137.269 40.0515L131.738 77.0405C130.063 88.2543 124.258 98.4904 115.395 105.867C111.329 109.25 106.368 111.933 100.232 114.076L78.5882 121.655C77.916 121.894 77.2017 121.958 76.5073 121.859Z"/>
</mask>
<path d="M76.5073 121.859C75.8137 121.754 75.1449 121.49 74.5693 121.074L56.0192 107.644C50.756 103.83 46.7951 99.8446 43.9005 95.4623C37.564 85.8775 34.9949 74.4171 36.6783 63.1878L42.2048 26.226C42.8417 21.96 46.2073 18.5544 50.5708 17.741L89.6071 10.5244C91.9279 10.0773 94.3824 10.4381 96.5034 11.5304L131.744 29.5563C135.69 31.5675 137.911 35.7918 137.269 40.0515L131.738 77.0405C130.063 88.2543 124.258 98.4904 115.395 105.867C111.329 109.25 106.368 111.933 100.232 114.076L78.5882 121.655C77.916 121.894 77.2017 121.958 76.5073 121.859Z" fill="#72DC60" fill-opacity="0.35"/>
<path d="M76.3531 122.847C76.8991 122.93 77.4108 122.554 77.496 122.009C77.5812 121.463 77.2075 120.954 76.6615 120.871L76.3531 122.847ZM74.5693 121.074L75.1589 120.264L75.1588 120.264L74.5693 121.074ZM56.0192 107.644L55.4293 108.453L55.4296 108.454L56.0192 107.644ZM43.9005 95.4623L44.7365 94.9096L44.7363 94.9092L43.9005 95.4623ZM36.6783 63.1878L37.6679 63.3316L37.6679 63.3313L36.6783 63.1878ZM42.2048 26.226L43.1944 26.3695L43.1945 26.3693L42.2048 26.226ZM50.5708 17.741L50.3927 16.7584L50.3912 16.7586L50.5708 17.741ZM89.6071 10.5244L89.7852 11.5071L89.7926 11.5056L89.6071 10.5244ZM96.5034 11.5304L96.0418 12.419L96.0442 12.4203L96.5034 11.5304ZM131.744 29.5563L131.285 30.4462L131.286 30.4468L131.744 29.5563ZM137.269 40.0515L136.28 39.9069L136.279 39.908L137.269 40.0515ZM131.738 77.0405L130.749 76.897L130.749 76.8971L131.738 77.0405ZM115.395 105.867L116.034 106.633L116.034 106.633L115.395 105.867ZM100.232 114.076L99.9058 113.133L99.905 113.133L100.232 114.076ZM78.5882 121.655L78.2606 120.712L78.2562 120.713L78.5882 121.655ZM76.6537 120.87C76.107 120.791 75.5983 121.17 75.5174 121.717C75.4365 122.263 75.8142 122.77 76.3609 122.848L76.6537 120.87ZM76.6615 120.871C76.1173 120.788 75.5994 120.583 75.1589 120.264L73.9797 121.883C74.6904 122.398 75.5102 122.719 76.3531 122.847L76.6615 120.871ZM75.1588 120.264L56.6088 106.834L55.4296 108.454L73.9797 121.883L75.1588 120.264ZM56.6091 106.834C51.421 103.075 47.5519 99.1719 44.7365 94.9096L43.0645 96.015C46.0383 100.517 50.0909 104.585 55.4293 108.453L56.6091 106.834ZM44.7363 94.9092C38.533 85.526 36.0217 74.3131 37.6679 63.3316L35.6886 63.0439C33.9681 74.5211 36.5949 86.2291 43.0647 96.0154L44.7363 94.9092ZM37.6679 63.3313L43.1944 26.3695L41.2151 26.0825L35.6886 63.0443L37.6679 63.3313ZM43.1945 26.3693C43.7656 22.544 46.7905 19.4615 50.7504 18.7233L50.3912 16.7586C45.6241 17.6473 41.9178 21.376 41.215 26.0827L43.1945 26.3693ZM50.7489 18.7236L89.7852 11.507L89.429 9.5418L50.3927 16.7584L50.7489 18.7236ZM89.7926 11.5056C91.889 11.1018 94.116 11.4272 96.0418 12.419L96.965 10.6418C94.6488 9.44902 91.9669 9.05289 89.4216 9.54319L89.7926 11.5056ZM96.0442 12.4203L131.285 30.4462L132.203 28.6665L96.9625 10.6405L96.0442 12.4203ZM131.286 30.4468C134.865 32.2709 136.855 36.0873 136.28 39.9069L138.259 40.1961C138.967 35.4963 136.515 30.8641 132.202 28.6658L131.286 30.4468ZM136.279 39.908L130.749 76.897L132.728 77.184L138.259 40.195L136.279 39.908ZM130.749 76.8971C129.11 87.8634 123.433 97.879 114.756 105.1L116.034 106.633C125.083 99.1018 131.016 88.6453 132.728 77.1839L130.749 76.8971ZM114.757 105.1C110.802 108.391 105.953 111.021 99.9058 113.133L100.559 115.019C106.782 112.846 111.856 110.109 116.034 106.633L114.757 105.1ZM99.905 113.133L78.2606 120.712L78.9157 122.598L100.56 115.019L99.905 113.133ZM78.2562 120.713C77.7422 120.896 77.1924 120.947 76.6537 120.87L76.3609 122.848C77.2109 122.97 78.0897 122.891 78.9201 122.596L78.2562 120.713Z" fill="url(#paint1_linear_30_237)" mask="url(#path-2-outside-1_30_237)"/>
</g>
<g filter="url(#filter1_bd_30_237)">
<path d="M76.9959 79.8642C75.9119 79.7055 74.8893 79.1538 74.1789 78.2302L65.0402 66.3387C63.6306 64.4932 64.0175 61.9029 65.9095 60.5466C67.8024 59.1848 70.4845 59.5745 71.9006 61.4154L78.4769 69.9678L100.231 54.3418C102.13 52.9809 104.812 53.3706 106.222 55.2107C107.638 57.057 107.25 59.6528 105.359 61.0036L80.17 79.099C79.2203 79.7822 78.0798 80.0229 76.9959 79.8642Z" fill="url(#paint2_linear_30_237)"/>
<path d="M65.9677 60.6277L65.9678 60.6276C67.8167 59.2975 70.4378 59.6782 71.8212 61.4765L78.3974 70.0289L78.4563 70.1054L78.5351 70.0488L100.289 54.4229C102.144 53.0934 104.765 53.4745 106.143 55.2716C107.524 57.0736 107.145 59.6048 105.301 60.9224L105.3 60.9226L80.1118 79.018L80.1117 79.018C79.1844 79.6851 78.0705 79.9205 77.0108 79.7653C75.9507 79.6101 74.952 79.0708 74.2583 78.1691L65.1199 66.2779C63.7442 64.4768 64.1219 61.9508 65.9677 60.6277Z" stroke="url(#paint3_linear_30_237)" stroke-opacity="0.5" stroke-width="0.2"/>
</g>
<defs>
<filter id="filter0_b_30_237" x="11.1738" y="-14.6621" width="151.206" height="161.565" filterUnits="userSpaceOnUse" color-interpolation-filters="sRGB">
<feFlood flood-opacity="0" result="BackgroundImageFix"/>
<feGaussianBlur in="BackgroundImage" stdDeviation="12"/>
<feComposite in2="SourceAlpha" operator="in" result="effect1_backgroundBlur_30_237"/>
<feBlend mode="normal" in="SourceGraphic" in2="effect1_backgroundBlur_30_237" result="shape"/>
</filter>
<filter id="filter1_bd_30_237" x="49.1924" y="38.5298" width="72.8823" height="56.3813" filterUnits="userSpaceOnUse" color-interpolation-filters="sRGB">
<feFlood flood-opacity="0" result="BackgroundImageFix"/>
<feGaussianBlur in="BackgroundImage" stdDeviation="7.5"/>
<feComposite in2="SourceAlpha" operator="in" result="effect1_backgroundBlur_30_237"/>
<feColorMatrix in="SourceAlpha" type="matrix" values="0 0 0 0 0 0 0 0 0 0 0 0 0 0 0 0 0 0 127 0" result="hardAlpha"/>
<feOffset dx="5" dy="5"/>
<feGaussianBlur stdDeviation="5"/>
<feColorMatrix type="matrix" values="0 0 0 0 0.454902 0 0 0 0 0.870588 0 0 0 0 0.376471 0 0 0 0.5 0"/>
<feBlend mode="normal" in2="effect1_backgroundBlur_30_237" result="effect2_dropShadow_30_237"/>
<feBlend mode="normal" in="SourceGraphic" in2="effect2_dropShadow_30_237" result="shape"/>
</filter>
<linearGradient id="paint0_linear_30_237" x1="55.8191" y1="-10.9999" x2="34.0004" y2="71.1022" gradientUnits="userSpaceOnUse">
<stop stop-color="#9BF763"/>
<stop offset="1" stop-color="#26AB5B"/>
</linearGradient>
<linearGradient id="paint1_linear_30_237" x1="58.9194" y1="18.5383" x2="119.515" y2="106.292" gradientUnits="userSpaceOnUse">
<stop stop-color="white" stop-opacity="0.25"/>
<stop offset="1" stop-color="white" stop-opacity="0"/>
</linearGradient>
<linearGradient id="paint2_linear_30_237" x1="103.922" y1="59.1234" x2="57.9433" y2="54.0618" gradientUnits="userSpaceOnUse">
<stop stop-color="white"/>
<stop offset="1" stop-color="white" stop-opacity="0.2"/>
</linearGradient>
<linearGradient id="paint3_linear_30_237" x1="69.4907" y1="58.5967" x2="104.278" y2="64.299" gradientUnits="userSpaceOnUse">
<stop stop-color="white"/>
<stop offset="1" stop-color="white" stop-opacity="0"/>
</linearGradient>
</defs>
</svg>


