<svg width="26" height="30" viewBox="0 0 26 30" fill="none" xmlns="http://www.w3.org/2000/svg">
<path fill-rule="evenodd" clip-rule="evenodd" d="M1.66773 17.3828V17.0908C1.71056 16.227 1.98742 15.3899 2.46977 14.6661C3.27263 13.7966 3.82223 12.731 4.06091 11.5813C4.06091 10.6926 4.06091 9.7913 4.13853 8.90266C4.53955 4.62451 8.76966 1.66663 12.948 1.66663H13.0515C17.2299 1.66663 21.46 4.62451 21.874 8.90266C21.9516 9.7913 21.874 10.6926 21.9386 11.5813C22.1805 12.7337 22.7296 13.8026 23.5298 14.6788C24.0157 15.3962 24.293 16.2302 24.3318 17.0908V17.3701C24.3607 18.5307 23.961 19.6624 23.2064 20.5565C22.2092 21.6019 20.8561 22.2523 19.4032 22.3845C15.1426 22.8416 10.844 22.8416 6.58346 22.3845C5.13215 22.2466 3.78097 21.5972 2.78023 20.5565C2.03729 19.6617 1.64295 18.5367 1.66773 17.3828Z" stroke="#200E32" stroke-width="1.5" stroke-linecap="round" stroke-linejoin="round"/>
<path opacity="0.4" d="M9.73999 26.8024C10.4057 27.6379 11.3833 28.1787 12.4564 28.305C13.5295 28.4312 14.6096 28.1326 15.4578 27.4752C15.7186 27.2807 15.9533 27.0547 16.1563 26.8024" stroke="#200E32" stroke-width="1.5" stroke-linecap="round" stroke-linejoin="round"/>
</svg>

